<svg id="eueY6S901vW1" xmlns="http://www.w3.org/2000/svg" xmlns:xlink="http://www.w3.org/1999/xlink" viewBox="0 0 1080 1920" shape-rendering="geometricPrecision" text-rendering="geometricPrecision" width="1080" height="1920"><path d="M1080,246.990138c-76.65522,0-254.511899,39.77079-330.327169,68.93051-19.29069,7.4195-466.406482,144.326999-527.468252,281.715999-4.582671,10.31101-22.47866,50.009662-17.981872,83.915404c3.178229,23.963813,26.98582,44.967693,32.966765,50.948638c39.60692,39.60692,104.11155,75.996219,161.74282,122.101239c47.330371,37.8643,111.180135,99.093622,103.527281,156.400447-.781863,5.854823,14.490464,94.450446-64.258313,157.751302-93.945693,75.516635-251.387018,98.835584-316.42543,118.847403C73.79402,1302.36471,46.29639,1313.377881,0,1331.896431" transform="matrix(1 0 0 0.717397 0 225.473902)" fill="none" stroke="#000" stroke-width="3.84"/><path d="M1092.276276,292.884868c-51.244799-.587986-118.87106,14.752778-207.836736,50.088389-75.14979,29.848183-154.652895,68.525171-184.767395,84.765625-66.688791,35.964608-82.546294,102.771451-84.665678,115.395266-2.964549,17.657927,1.120744,70.597406,26.340433,94.414309c36.773255,34.727829,86.975733,77.623534,108.325931,102.282168c41.881084,48.370995,94.186884,126.743786,109.777365,150.470365c30.867418,46.975987,31.317095,131.116276,24.989344,160.645781-8.68258,40.51869-30.437311,122.314231-46.408781,160.645781-106.87217,256.49321-383.808909,333.453028-625.012029,421.163258C183.89175,1643.34744,30.55643,1679.842271,0,1686.390081" transform="matrix(1 0 0 0.717397 0 283.806976)" fill="none" stroke="#000" stroke-width="3.84"/></svg>
